PathFileType	4	(X/Y/Z)	C:\Users\WrightLab\Desktop\Jo\P3_4.trc
DataRate	CameraRate	NumFrames	NumMarkers	Units	OrigDataRate	OrigDataStartFrame	OrigNumFrames
100.00	100.00	       10	19	mm	100.00	400	       639
Frame#	Time	Headset_Front			Headset_Back			Headset_Left			Headset_Right			Left_Shoulder			Right_Shoulder			Sternum			C7			Left Elbow			Right Elbow			Left Wrist			Right Wrist			Left ASIS			Right ASIS			S2			Left Knee			Right Knee			Left Ankle			Right Ankle			
		X1	Y1	Z1	X2	Y2	Z2	X3	Y3	Z3	X4	Y4	Z4	X5	Y5	Z5	X6	Y6	Z6	X7	Y7	Z7	X8	Y8	Z8	X9	Y9	Z9	X10	Y10	Z10	X11	Y11	Z11	X12	Y12	Z12	X13	Y13	Z13	X14	Y14	Z14	X15	Y15	Z15	X16	Y16	Z16	X17	Y17	Z17	X18	Y18	Z18	X19	Y19	Z19	

400	3.990	28.07260	1555.11035	1463.53210	163.94742	1604.15417	1313.89551				-59.64943	1573.29297	1343.11316	254.16808	1373.23840	1272.97534	-97.60274	1376.13611	1223.05835	67.17875	1260.62244	1381.57825	79.79408	1420.38477	1192.50769	349.00854	1049.64258	1267.22498	-175.74530	1031.45593	1211.01428	362.18854	871.28735	1375.04639	-171.96495	845.73492	1348.31873	180.68854	900.39166	1377.07861	-67.61495	889.21375	1351.43164	81.39418	967.98431	1148.28345	201.57655	482.50467	1372.14404	-48.34678	460.16867	1387.64600	195.94826	151.55905	1335.23621	-18.79977	260.47714	1114.78235	
401	4.000	27.28396	1555.50854	1471.38965	164.94862	1604.62061	1323.20715				-59.31725	1573.87732	1351.00610	255.31999	1374.30774	1283.05884	-96.36329	1377.34338	1230.32336	67.26505	1261.05164	1389.47363	82.30364	1421.57288	1201.05298	349.82935	1050.48193	1279.53931	-175.19472	1032.85144	1217.16614	360.85913	872.22888	1388.26965	-172.75771	847.30743	1355.71997	182.16130	903.29309	1386.89331	-67.23922	891.02393	1358.17114	82.28707	968.94843	1156.72327	202.35710	482.97223	1375.89197	-48.41575	463.97623	1404.55884	195.58444	151.83438	1335.90234	-16.66272	259.96866	1135.51782	
402	4.010	27.14147	1556.28027	1479.73169	165.44157	1605.59277	1332.54553				-59.39033	1574.66492	1358.85510	256.08960	1374.91650	1292.75513	-95.22968	1378.16528	1237.49695	67.39622	1261.28625	1397.58704	82.45152	1422.88696	1209.61841	350.46756	1051.12561	1292.76855	-174.01718	1032.93250	1222.54626	359.71823	874.23413	1402.89856	-173.16353	849.19305	1362.65198	181.92751	903.75574	1394.06128	-66.66545	892.73431	1365.06714	84.08596	969.99487	1162.68860	202.06906	481.80853	1378.25195	-49.02800	468.01495	1420.98596	195.50400	151.72731	1336.19080	-14.15040	258.41019	1155.96680	
403	4.020	26.30016	1556.29224	1487.56445	165.35602	1606.08289	1341.45190				-59.10060	1574.85120	1366.55554	256.91953	1375.64111	1301.77576	-94.08709	1379.46558	1244.39136	67.34493	1261.94727	1405.02319	83.37622	1423.25269	1218.09363	351.39874	1051.87415	1305.55029	-173.39188	1034.55640	1228.57544	357.78464	875.78613	1416.65942	-174.08022	851.18274	1369.77673	182.49014	904.30597	1401.89783	-67.12877	895.02454	1372.04443	85.16351	971.03497	1169.86096	202.79340	482.36536	1381.74976	-49.60964	472.14066	1436.82288	195.52132	151.81830	1336.21619	-12.20250	255.79599	1176.49707	
404	4.030	24.84225	1556.66211	1497.84607	165.81689	1606.95605	1350.36890				-59.46764	1574.74426	1375.34448	257.03442	1376.07947	1311.72095	-92.95824	1380.61646	1251.18787	66.97495	1262.25012	1411.11560	85.05341	1424.18921	1225.94128	351.17838	1052.32581	1317.67761	-172.31471	1035.53552	1234.77588	356.60544	876.46478	1430.60339	-175.38495	853.25397	1377.11633	182.02237	905.07520	1410.11780	-66.23221	896.54224	1378.87561	86.40529	972.01715	1178.25232	202.74734	482.30698	1383.60132	-48.75053	475.88443	1452.34155	195.34256	152.06238	1336.95508	-10.14942	253.20512	1198.19653	
405	4.040	24.68227	1556.27039	1503.97900	165.48486	1607.23901	1360.68103				-59.19550	1574.95532	1381.78723	257.74326	1376.38013	1320.66077	-91.79969	1381.45044	1258.05823	66.76409	1263.12292	1419.96619	86.54354	1424.79541	1234.69604	351.41339	1053.05237	1330.42273	-171.03821	1037.11926	1241.59497	354.91614	877.53308	1444.22546	-175.78194	854.99872	1384.09619	183.40672	906.49725	1417.90344	-66.15011	898.33813	1385.53870	87.18418	972.65985	1185.12366	202.69409	481.88922	1385.16187	-50.31687	479.58368	1467.06812	195.53638	152.48055	1337.66296	-8.88078	249.43031	1220.66724	
406	4.050	23.22887	1556.12805	1512.80310	165.65697	1607.89514	1369.59619				-60.09083	1575.26416	1390.89966	258.55975	1377.11853	1329.73108	-90.76141	1382.30603	1264.62646	66.48985	1263.34509	1427.22986	87.69419	1425.88965	1242.51355	351.89975	1053.73779	1344.43774	-170.33311	1037.77881	1247.50171	352.03864	878.54620	1457.66077	-176.56480	856.50592	1391.33203	182.90198	905.48041	1424.37732	-65.45666	899.18085	1392.59302	88.07848	973.26141	1192.73413	203.04504	481.76843	1388.28394	-51.38230	483.71484	1481.47095	195.50485	152.80510	1337.72852	-7.33959	245.01329	1242.69519	
407	4.060	21.98952	1556.61633	1521.12585	165.73972	1607.89624	1377.76086				-59.94707	1575.58044	1398.18420	259.10898	1377.55200	1339.58691	-89.72820	1383.30164	1271.25281	66.18125	1263.88745	1434.58582	88.83595	1426.25891	1250.82129	351.29422	1053.77539	1356.34973	-169.41779	1038.76636	1253.35413	351.42209	879.68030	1471.84912	-177.27783	858.29584	1398.51343	183.06044	906.02063	1432.48035	-65.41599	900.53760	1400.07361	88.51195	974.03705	1200.33606	204.15286	481.83923	1390.16589	-52.24907	488.06042	1495.48303	195.44527	152.73495	1338.41797	-6.35814	240.01810	1265.82141	
408	4.070	21.18684	1555.55835	1528.48401	165.46860	1608.26233	1386.97925				-60.33751	1575.93481	1405.28357	259.19424	1377.53015	1348.34680	-88.75137	1383.82825	1277.98486	65.53224	1264.40100	1442.44177	89.77993	1426.69482	1258.98523	351.44965	1053.81323	1369.77832	-168.40648	1039.57910	1260.30859	349.21655	881.22491	1485.34521	-177.87407	859.70160	1405.60254	184.51711	905.83142	1440.42212	-65.49216	901.22363	1407.08093	89.34681	973.89752	1208.31482	203.76532	481.40009	1391.23376	-52.87069	491.00464	1508.61206	195.27998	152.86978	1338.66565	-5.10948	234.40524	1289.06055	
409	4.080	19.71457	1555.32678	1537.06702	165.20532	1608.63416	1397.51477				-60.81651	1575.70398	1414.01147	259.12094	1377.68909	1358.85620	-88.14518	1384.73682	1284.46753	64.47344	1264.79663	1450.96448	91.11127	1427.25378	1267.32092	350.47266	1053.87939	1381.29053	-167.31197	1040.00110	1266.20068	346.82471	881.75958	1499.01257	-179.17189	861.52887	1413.03809	184.91043	905.53992	1447.14343	-64.97282	901.54474	1414.29883	89.29268	974.54675	1215.20691	204.02237	480.97211	1393.49182	-53.89077	494.60129	1521.57617	195.29016	152.93393	1338.68494	-3.51478	228.23442	1312.84204	
